HIERARCHY
ROOT Hips
{
	OFFSET 0.000000 0.000000 0.000000
	CHANNELS 6 Xposition Yposition Zposition Xrotation Yrotation Zrotation
	JOINT Spine
	{
		OFFSET 0.000000 0.042231 0.063346
		CHANNELS 3 Xrotation Yrotation Zrotation
		JOINT Spine1
		{
			OFFSET 0.000000 0.014667 0.083179
			CHANNELS 3 Xrotation Yrotation Zrotation
			JOINT Spine2
			{
				OFFSET 0.000000 0.007361 0.084141
				CHANNELS 3 Xrotation Yrotation Zrotation
				JOINT Spine3
				{
					OFFSET 0.000000 0.000000 0.084462
					CHANNELS 3 Xrotation Yrotation Zrotation
					JOINT Neck
					{
						OFFSET 0.000000 -0.031673 0.221713
						CHANNELS 3 Xrotation Yrotation Zrotation
						JOINT Head
						{
							OFFSET 0.000000 -0.020167 0.114371
							CHANNELS 3 Xrotation Yrotation Zrotation
							End Site
							{
								OFFSET 0.000000 0.000000 0.000000
							}
						}
					}
					JOINT RightShoulder
					{
						OFFSET -0.029161 -0.048602 0.157471
						CHANNELS 3 Xrotation Yrotation Zrotation
						JOINT RightArm
						{
							OFFSET -0.144834 0.000000 0.000000
							CHANNELS 3 Xrotation Yrotation Zrotation
							JOINT RightForeArm
							{
								OFFSET -0.274949 0.000000 0.000000
								CHANNELS 3 Xrotation Yrotation Zrotation
								JOINT RightHand
								{
									OFFSET -0.254725 0.000000 0.000000
									CHANNELS 3 Xrotation Yrotation Zrotation
									JOINT RightHandEnd
									{
										OFFSET -0.068160 0.000000 0.000000
										CHANNELS 3 Xrotation Yrotation Zrotation
										End Site
										{
											OFFSET 0.000000 0.000000 0.000000
										}
									}
									JOINT RightHandThumb1
									{
										OFFSET -0.027264 -0.045440 -0.018176
										CHANNELS 3 Xrotation Yrotation Zrotation
										End Site
										{
											OFFSET 0.000000 0.000000 0.000000
										}
									}
								}
							}
						}
					}
					JOINT LeftShoulder
					{
						OFFSET 0.029161 -0.048602 0.157471
						CHANNELS 3 Xrotation Yrotation Zrotation
						JOINT LeftArm
						{
							OFFSET 0.144834 0.000000 0.000000
							CHANNELS 3 Xrotation Yrotation Zrotation
							JOINT LeftForeArm
							{
								OFFSET 0.274949 0.000000 0.000000
								CHANNELS 3 Xrotation Yrotation Zrotation
								JOINT LeftHand
								{
									OFFSET 0.254725 0.000000 0.000000
									CHANNELS 3 Xrotation Yrotation Zrotation
									JOINT LeftHandEnd
									{
										OFFSET 0.068160 0.000000 0.000000
										CHANNELS 3 Xrotation Yrotation Zrotation
										End Site
										{
											OFFSET 0.000000 0.000000 0.000000
										}
									}
									JOINT LeftHandThumb1
									{
										OFFSET 0.027264 -0.045440 -0.018176
										CHANNELS 3 Xrotation Yrotation Zrotation
										End Site
										{
											OFFSET 0.000000 0.000000 0.000000
										}
									}
								}
							}
						}
					}
				}
			}
		}
	}
	JOINT RightUpLeg
	{
		OFFSET -0.086512 0.000000 -0.025273
		CHANNELS 3 Xrotation Yrotation Zrotation
		JOINT RightLeg
		{
			OFFSET 0.000000 0.000000 -0.433119
			CHANNELS 3 Xrotation Yrotation Zrotation
			JOINT RightFoot
			{
				OFFSET 0.000000 0.000000 -0.404688
				CHANNELS 3 Xrotation Yrotation Zrotation
				JOINT RightToeBase
				{
					OFFSET 0.000000 -0.126496 -0.046041
					CHANNELS 3 Xrotation Yrotation Zrotation
					End Site
					{
						OFFSET 0.000000 0.000000 0.000000
					}
				}
			}
		}
	}
	JOINT LeftUpLeg
	{
		OFFSET 0.086512 0.000000 -0.025273
		CHANNELS 3 Xrotation Yrotation Zrotation
		JOINT LeftLeg
		{
			OFFSET 0.000000 0.000000 -0.433119
			CHANNELS 3 Xrotation Yrotation Zrotation
			JOINT LeftFoot
			{
				OFFSET 0.000000 0.000000 -0.404688
				CHANNELS 3 Xrotation Yrotation Zrotation
				JOINT LeftToeBase
				{
					OFFSET 0.000000 -0.126496 -0.046041
					CHANNELS 3 Xrotation Yrotation Zrotation
					End Site
					{
						OFFSET 0.000000 0.000000 0.000000
					}
				}
			}
		}
	}
}
MOTION
Frames: 12
Frame Time: 0.033333
0.047046 0.460916 0.899795 0.898100 0.934900 72.705300 -1.157000 0.938700 0.261400 -0.223800 0.135500 0.026800 3.409100 -0.087600 0.572200 1.618600 0.034200 0.256600 5.418700 -1.206200 0.147400 -2.386900 3.292100 -0.999500 6.592400 -10.268700 -0.232900 56.367200 -28.931400 53.698900 0.000000 0.000000 26.774500 -8.507100 14.914300 -0.665400 0.000000 0.000000 0.000000 0.000000 0.000000 0.000000 10.076300 7.851900 -2.755700 48.658600 28.580500 -57.992200 0.000000 0.000000 -36.979400 -16.171300 -13.920600 0.707000 0.000000 0.000000 0.000000 0.000000 0.000000 0.000000 -6.693500 3.576600 -45.169000 5.106900 0.000000 0.000000 -4.549500 -6.207300 -9.010700 -1.803600 0.000000 0.000000 -10.965700 -4.359700 18.866400 29.403600 0.000000 0.000000 -19.165500 -2.613400 34.674400 -8.303200 0.000000 0.000000 
0.042629 0.444724 0.900466 0.889500 1.452000 78.590800 -1.274100 0.770300 0.378400 -0.338800 0.111100 0.011800 3.494400 -0.095400 0.156700 1.628900 0.128500 0.169400 5.418400 -1.003900 -0.143600 -2.330700 3.209400 -1.187200 6.815600 -10.030400 -0.488200 55.500900 -30.185000 52.744100 0.000000 0.000000 26.105600 -9.489700 15.132500 -0.194300 0.000000 0.000000 0.000000 0.000000 0.000000 0.000000 10.306600 7.869100 -2.632100 49.168700 27.341000 -57.437500 0.000000 0.000000 -35.464800 -16.806400 -13.293700 0.903900 0.000000 0.000000 0.000000 0.000000 0.000000 0.000000 -6.298000 2.856500 -49.936500 5.032800 0.000000 0.000000 -5.820700 -5.507100 -10.125100 -1.884200 0.000000 0.000000 -11.574900 -2.942000 22.976600 30.743500 0.000000 0.000000 -20.190800 -1.768700 34.331100 -7.943600 0.000000 0.000000 
0.038839 0.429423 0.900275 0.742900 1.916100 84.194900 -1.374800 0.652800 0.361300 -0.443000 0.101000 0.023800 3.468100 -0.142300 0.136300 1.633800 0.151400 0.231900 5.546600 -0.872500 -0.693400 -2.372300 3.098900 -1.653200 7.235500 -9.991100 -0.750900 54.245700 -31.740800 51.396100 0.000000 0.000000 25.352200 -10.433600 15.331900 0.197200 0.000000 0.000000 0.000000 0.000000 0.000000 0.000000 10.419700 7.848600 -2.549500 49.588700 26.277600 -56.966000 0.000000 0.000000 -33.955100 -17.120200 -13.164300 1.123800 0.000000 0.000000 0.000000 0.000000 0.000000 0.000000 -6.240600 2.206000 -51.916800 5.427000 0.000000 0.000000 -7.383600 -4.366500 -13.202300 -2.062800 0.000000 0.000000 -11.119100 -1.509100 26.690500 30.496200 0.000000 0.000000 -20.075500 0.348500 32.960200 -7.477600 0.000000 0.000000 
0.035936 0.414431 0.899340 0.346400 2.318800 89.544000 -1.484200 0.620400 0.231900 -0.528500 0.084500 0.032800 3.304300 -0.253000 0.208100 1.628200 0.099500 0.337700 5.861900 -0.801800 -1.313400 -2.506800 2.874300 -2.395100 7.591400 -10.077600 -0.871700 53.328200 -32.927500 50.237100 0.000000 0.000000 24.308900 -11.367400 15.295100 0.388200 0.000000 0.000000 0.000000 0.000000 0.000000 0.000000 10.562000 7.771900 -2.253900 49.647000 25.827800 -56.451400 0.000000 0.000000 -32.551800 -17.025800 -13.373300 1.307000 0.000000 0.000000 0.000000 0.000000 0.000000 0.000000 -6.487800 1.481000 -51.800000 6.311100 0.000000 0.000000 -9.268700 -3.045100 -17.803700 -2.222000 0.000000 0.000000 -9.722300 -0.371400 29.140800 28.039800 0.000000 0.000000 -19.254800 3.021400 31.772100 -6.534500 0.000000 0.000000 
0.033752 0.400070 0.897710 -0.150400 2.583300 94.920800 -1.544300 0.868500 -0.001800 -0.556300 0.097300 0.019600 3.053600 -0.526400 0.035800 1.606700 0.042500 0.368900 6.228900 -0.771700 -1.956200 -2.683600 2.511100 -3.395900 7.696600 -10.145700 -0.911700 52.968400 -33.778400 49.768000 0.000000 0.000000 22.805500 -11.655200 15.248600 0.240900 0.000000 0.000000 0.000000 0.000000 0.000000 0.000000 10.714600 7.519000 -1.799100 49.184700 26.517900 -55.727400 0.000000 0.000000 -31.427300 -16.781300 -13.709200 1.406300 0.000000 0.000000 0.000000 0.000000 0.000000 0.000000 -6.943300 0.879100 -51.460500 7.670800 0.000000 0.000000 -11.278300 -1.459800 -22.657500 -1.992800 0.000000 0.000000 -7.778200 0.488000 29.433500 23.415400 0.000000 0.000000 -18.410000 4.240400 30.735400 -4.657900 0.000000 0.000000 
0.031191 0.386900 0.895761 -0.527800 2.702700 100.285200 -1.444500 1.379700 -0.327000 -0.464500 0.190000 -0.007200 2.841700 -0.822700 -0.288700 1.578500 0.010400 0.359200 6.329900 -0.916300 -2.741200 -2.910500 2.091300 -4.607400 7.574100 -10.299300 -1.018000 52.599100 -34.498700 49.695800 0.000000 0.000000 21.234900 -10.693400 15.469800 -0.188700 0.000000 0.000000 0.000000 0.000000 0.000000 0.000000 10.794400 7.095900 -1.461900 48.156100 28.231800 -54.697000 0.000000 0.000000 -30.666000 -17.030400 -14.285400 1.339300 0.000000 0.000000 0.000000 0.000000 0.000000 0.000000 -7.769800 0.824800 -49.999300 9.880900 0.000000 0.000000 -13.093600 0.380100 -28.322800 -1.844100 0.000000 0.000000 -5.835800 1.065100 27.890600 17.790200 0.000000 0.000000 -17.721900 3.638600 28.911300 -2.127300 0.000000 0.000000 
0.027168 0.374670 0.894629 -0.708500 2.772100 105.255800 -1.149900 1.946900 -0.680700 -0.270100 0.385300 -0.009300 2.843700 -0.957600 -0.473100 1.559200 0.009300 0.372500 5.971700 -1.221400 -3.728800 -3.152300 1.583600 -5.921400 7.317500 -10.706200 -1.163800 51.528300 -35.266400 49.369100 0.000000 0.000000 20.235100 -8.977500 15.943400 -0.559300 0.000000 0.000000 0.000000 0.000000 0.000000 0.000000 10.747900 6.739400 -1.419300 46.606200 30.266100 -53.235200 0.000000 0.000000 -30.236300 -18.207400 -15.208500 1.068400 0.000000 0.000000 0.000000 0.000000 0.000000 0.000000 -9.472000 1.651400 -45.463900 13.970800 0.000000 0.000000 -14.400100 1.694800 -35.314500 -2.825800 0.000000 0.000000 -4.580700 1.247900 25.772200 13.164100 0.000000 0.000000 -16.802800 3.141000 26.115600 -0.108000 0.000000 0.000000 
0.021941 0.362575 0.895159 -0.727300 2.880100 109.653900 -0.770700 2.425200 -0.952900 0.000100 0.608600 0.013800 3.079000 -0.870500 -0.491800 1.544100 0.051300 0.392500 5.412300 -1.308900 -4.769800 -3.343500 0.844700 -7.201000 7.015600 -11.158300 -1.181200 49.673400 -36.448800 48.624500 0.000000 0.000000 20.190400 -7.681200 16.586300 -0.667100 0.000000 0.000000 0.000000 0.000000 0.000000 0.000000 10.664200 6.596500 -1.591900 44.750300 31.915900 -51.433500 0.000000 0.000000 -29.972300 -19.934600 -16.183400 0.696300 0.000000 0.000000 0.000000 0.000000 0.000000 0.000000 -12.270100 3.263300 -39.245200 20.495000 0.000000 0.000000 -14.905500 1.262200 -40.606700 -5.071200 0.000000 0.000000 -4.437700 1.071200 24.130800 10.823100 0.000000 0.000000 -15.289300 3.943000 23.087100 0.599700 0.000000 0.000000 
0.017165 0.350124 0.896793 -0.842800 2.827800 113.754300 -0.355000 2.579000 -1.112700 0.340600 0.674600 0.035500 3.380500 -0.693100 -0.524500 1.524200 0.176900 0.350800 5.144200 -0.818900 -5.580200 -3.503200 0.010300 -8.314800 6.847400 -11.170800 -1.022800 47.516900 -38.280600 47.804300 0.000000 0.000000 21.251500 -7.419400 17.418800 -0.681900 0.000000 0.000000 0.000000 0.000000 0.000000 0.000000 10.701400 6.534300 -1.768400 43.010300 32.944600 -49.738200 0.000000 0.000000 -29.788200 -21.126400 -16.813400 0.523900 0.000000 0.000000 0.000000 0.000000 0.000000 0.000000 -15.295300 4.979300 -34.010300 28.064500 0.000000 0.000000 -14.091800 -0.694700 -40.789400 -7.418400 0.000000 0.000000 -5.093800 0.415200 23.024000 10.419400 0.000000 0.000000 -13.472200 5.447500 20.366200 0.439900 0.000000 0.000000 
0.013851 0.337462 0.898299 -1.260300 2.411200 117.769200 0.072400 2.169100 -1.138400 0.689900 0.478600 0.036300 3.628200 -0.530700 -0.563700 1.521300 0.350600 0.248800 5.298300 0.060300 -5.952400 -3.666800 -0.390500 -9.149200 6.830400 -10.678200 -0.778700 45.482100 -40.398800 46.847500 0.000000 0.000000 23.567200 -7.809700 18.251100 -0.720300 0.000000 0.000000 0.000000 0.000000 0.000000 0.000000 10.857800 6.458200 -1.802500 41.767800 33.416200 -48.580800 0.000000 0.000000 -29.819400 -21.171900 -17.093900 0.553000 0.000000 0.000000 0.000000 0.000000 0.000000 0.000000 -17.457000 6.199000 -29.989800 34.243400 0.000000 0.000000 -12.511100 -2.127400 -36.871100 -8.485600 0.000000 0.000000 -6.051800 -0.778700 21.723800 10.904000 0.000000 0.000000 -11.999600 6.559100 18.096700 0.224400 0.000000 0.000000 
0.011778 0.325021 0.898909 -1.646300 1.861700 121.582800 0.424900 1.567000 -1.031200 0.947200 0.195200 0.035900 3.834800 -0.468900 -0.415600 1.572900 0.450700 0.206100 5.601200 0.720400 -5.897800 -3.823900 -0.003200 -9.619400 6.844200 -10.079400 -0.623400 43.818800 -41.784300 45.618100 0.000000 0.000000 26.890000 -8.204600 18.671000 -0.499300 0.000000 0.000000 0.000000 0.000000 0.000000 0.000000 11.014300 6.367400 -1.671700 41.148800 33.554700 -48.102400 0.000000 0.000000 -30.302200 -20.589200 -17.306300 0.425800 0.000000 0.000000 0.000000 0.000000 0.000000 0.000000 -18.306200 7.100900 -26.166300 37.446500 0.000000 0.000000 -12.532600 -2.345700 -32.823700 -8.383000 0.000000 0.000000 -7.045300 -1.914300 19.738600 11.514800 0.000000 0.000000 -11.003900 7.087800 16.361600 0.162600 0.000000 0.000000 
0.010810 0.312509 0.898619 -1.692200 1.602300 125.180000 0.583200 1.307800 -0.863200 1.060800 0.048100 0.043900 4.009100 -0.514400 -0.024600 1.667400 0.378500 0.325300 5.865200 0.755300 -5.594100 -3.898600 0.861700 -9.723700 6.785900 -9.731600 -0.733900 42.792100 -41.744200 44.483200 0.000000 0.000000 30.401600 -8.186600 18.595000 0.246700 0.000000 0.000000 0.000000 0.000000 0.000000 0.000000 11.161400 6.188800 -1.486900 41.021300 33.625300 -48.114700 0.000000 0.000000 -31.300100 -20.224200 -17.528000 0.001400 0.000000 0.000000 0.000000 0.000000 0.000000 0.000000 -17.858700 7.995500 -21.902300 37.411700 0.000000 0.000000 -14.629100 -2.217700 -30.791700 -7.624100 0.000000 0.000000 -8.061100 -2.469300 17.238600 11.946300 0.000000 0.000000 -10.088300 7.474000 15.220900 0.164000 0.000000 0.000000 
